<svg width="20" height="20" viewBox="0 0 20 20" fill="none" xmlns="http://www.w3.org/2000/svg">
<path d="M8.81666 0.48332L0.483323 8.81665C0.331589 8.97516 0.212647 9.16207 0.133323 9.36665C-0.0333734 9.77242 -0.0333734 10.2275 0.133323 10.6333C0.212647 10.8379 0.331589 11.0248 0.483323 11.1833L8.81666 19.5167C8.97205 19.6721 9.15654 19.7953 9.35957 19.8794C9.56261 19.9635 9.78022 20.0068 9.99999 20.0068C10.4438 20.0068 10.8695 19.8305 11.1833 19.5167C11.4972 19.2028 11.6735 18.7772 11.6735 18.3333C11.6735 17.8895 11.4972 17.4638 11.1833 17.15L5.68332 11.6667L18.3333 11.6667C18.7754 11.6667 19.1993 11.4911 19.5118 11.1785C19.8244 10.8659 20 10.442 20 9.99999C20 9.55796 19.8244 9.13404 19.5118 8.82147C19.1993 8.50891 18.7754 8.33332 18.3333 8.33332L5.68332 8.33332L11.1833 2.84999C11.3395 2.69505 11.4635 2.51071 11.5481 2.30761C11.6328 2.10452 11.6763 1.88667 11.6763 1.66665C11.6763 1.44663 11.6328 1.22879 11.5481 1.02569C11.4635 0.822594 11.3395 0.638258 11.1833 0.48332C11.0284 0.327106 10.844 0.203114 10.641 0.1185C10.4379 0.033886 10.22 -0.00967789 9.99999 -0.00967789C9.77997 -0.00967789 9.56213 0.033886 9.35903 0.1185C9.15593 0.203114 8.9716 0.327106 8.81666 0.48332Z" fill="black"/>
</svg>
