<svg width="68" height="68" viewBox="0 0 68 68" fill="none" xmlns="http://www.w3.org/2000/svg">
<g clip-path="url(#clip0_146_9)">
<path fill-rule="evenodd" clip-rule="evenodd" d="M34.0001 38.0064L50.0282 54.0345C50.5626 54.5506 51.2783 54.8362 52.0212 54.8298C52.7641 54.8233 53.4747 54.5253 54.0001 54C54.5254 53.4747 54.8234 52.764 54.8298 52.0212C54.8363 51.2783 54.5507 50.5626 54.0346 50.0282L38.0064 34L54.0346 17.9718C54.5507 17.4375 54.8363 16.7218 54.8298 15.9789C54.8234 15.236 54.5254 14.5254 54.0001 14C53.4747 13.4747 52.7641 13.1767 52.0212 13.1703C51.2783 13.1638 50.5626 13.4494 50.0282 13.9655L34.0001 29.9937L17.9719 13.9655C17.4351 13.4622 16.7236 13.1874 15.9878 13.1993C15.252 13.2113 14.5498 13.509 14.0296 14.0295C13.5095 14.5501 13.2122 15.2525 13.2008 15.9883C13.1894 16.7241 13.4647 17.4354 13.9684 17.9718L29.9937 34L13.9656 50.0282C13.695 50.2896 13.4791 50.6022 13.3306 50.9479C13.1821 51.2936 13.104 51.6653 13.1007 52.0416C13.0974 52.4178 13.1691 52.7908 13.3116 53.1391C13.454 53.4873 13.6644 53.8036 13.9304 54.0696C14.1965 54.3357 14.5128 54.546 14.861 54.6885C15.2092 54.831 15.5823 54.9027 15.9585 54.8994C16.3347 54.8961 16.7065 54.818 17.0522 54.6695C17.3979 54.521 17.7105 54.3051 17.9719 54.0345L34.0001 38.0064Z" fill="white"/>
</g>
<defs>
<clipPath id="clip0_146_9">
<rect width="68" height="68" fill="white"/>
</clipPath>
</defs>
</svg>
