<svg width="45" height="43" viewBox="0 0 45 43" fill="none" xmlns="http://www.w3.org/2000/svg">
<path d="M44.8338 4.46158C44.8338 4.46158 45.5488 2.33104 44.0128 0.839652C42.6093 -0.545204 40.7821 0.200488 40.7821 0.200488C39.1667 0.999443 25.5285 9.44174 20.4705 15.0344C18.193 17.5911 15.0152 25.1279 17.584 27.871C20.0203 30.4809 28.0708 27.4182 30.2688 25.2078C35.724 19.7216 44.0658 6.11276 44.8338 4.46158ZM0 41.9592C6.2762 37.8047 3.86635 32.8778 8.55364 29.6021C11.0165 27.871 14.4326 27.9509 16.7101 30.3744C18.3784 32.1587 18.8286 37.2188 16.2863 39.589C12.1287 43.4506 5.6936 43.7169 0 41.9592Z" fill="white"/>
</svg>
