<svg width="71" height="69" viewBox="0 0 71 69" fill="none" xmlns="http://www.w3.org/2000/svg">
<path d="M57.8454 46H19.8424L12.5342 17.25H65.1537L57.8454 46Z" fill="white"/>
<path d="M5.22583 8.625H10.3416L12.5341 17.25M12.5341 17.25L19.8424 46H57.8453L65.1536 17.25H12.5341Z" stroke="white" stroke-width="4" stroke-linecap="round" stroke-linejoin="round"/>
<path d="M19.8425 60.375C22.2642 60.375 24.2274 58.4442 24.2274 56.0625C24.2274 53.6808 22.2642 51.75 19.8425 51.75C17.4207 51.75 15.4575 53.6808 15.4575 56.0625C15.4575 58.4442 17.4207 60.375 19.8425 60.375Z" stroke="white" stroke-width="4" stroke-linecap="round" stroke-linejoin="round"/>
<path d="M57.8454 60.375C60.2672 60.375 62.2304 58.4442 62.2304 56.0625C62.2304 53.6808 60.2672 51.75 57.8454 51.75C55.4237 51.75 53.4604 53.6808 53.4604 56.0625C53.4604 58.4442 55.4237 60.375 57.8454 60.375Z" stroke="white" stroke-width="4" stroke-linecap="round" stroke-linejoin="round"/>
</svg>
